<?xml version="1.0" encoding="UTF-8" standalone="no"?>
<svg
   xmlns:dc="http://purl.org/dc/elements/1.1/"
   xmlns:cc="http://creativecommons.org/ns#"
   xmlns:rdf="http://www.w3.org/1999/02/22-rdf-syntax-ns#"
   xmlns:svg="http://www.w3.org/2000/svg"
   xmlns="http://www.w3.org/2000/svg"
   xmlns:sodipodi="http://sodipodi.sourceforge.net/DTD/sodipodi-0.dtd"
   xmlns:inkscape="http://www.inkscape.org/namespaces/inkscape"
   inkscape:version="1.0beta2 (unknown)"
   height="48"
   width="48"
   sodipodi:docname="kdabra-compact.svg"
   version="1.1"
   viewBox="0 0 47.999999 47.999999"
   data-name="Layer 1"
   id="Layer_1">
  <metadata
     id="metadata27">
    <rdf:RDF>
      <cc:Work
         rdf:about="">
        <dc:format>image/svg+xml</dc:format>
        <dc:type
           rdf:resource="http://purl.org/dc/dcmitype/StillImage" />
        <dc:title>Ícone Kdabra</dc:title>
      </cc:Work>
    </rdf:RDF>
  </metadata>
  <sodipodi:namedview
     inkscape:current-layer="Layer_1"
     inkscape:window-maximized="1"
     inkscape:window-y="0"
     inkscape:window-x="0"
     inkscape:cy="45.845001"
     inkscape:cx="-11.332472"
     inkscape:zoom="2.911986"
     showgrid="false"
     id="namedview25"
     inkscape:window-height="1027"
     inkscape:window-width="1920"
     inkscape:pageshadow="2"
     inkscape:pageopacity="0"
     guidetolerance="10"
     gridtolerance="10"
     objecttolerance="10"
     borderopacity="1"
     inkscape:document-rotation="0"
     bordercolor="#666666"
     pagecolor="#ffffff" />
  <defs
     id="defs4">
    <style
       id="style2">.cls-1{fill:#2da77b;}.cls-2{fill:#1a1934;}.cls-3{fill:#fff;}</style>
  </defs>
  <title
     id="title6">Ícone Kdabra</title>
  <g
     transform="matrix(0.53165403,0,0,0.53165403,-0.58743805,-0.37671093)"
     id="g860">
    <circle
       class="cls-1"
       cx="58.389999"
       cy="17.209999"
       r="3.03"
       id="circle8" />
    <circle
       class="cls-1"
       cx="41.630001"
       cy="19.860001"
       r="2.6400001"
       id="circle10" />
    <circle
       class="cls-1"
       cx="49.189999"
       cy="13.14"
       r="1.71"
       id="circle12" />
    <circle
       class="cls-1"
       cx="45.990002"
       cy="7.0300002"
       r="1.71"
       id="circle14" />
    <circle
       class="cls-1"
       cx="54.189999"
       cy="6.1500001"
       r="1.16"
       id="circle16" />
    <path
       class="cls-2"
       d="M 76.07,41.4 A 19.42,19.42 0 0 0 70.64,28.13 4,4 0 0 0 68.37,20.85 H 32 a 4,4 0 0 0 -2.28,7.28 19.41,19.41 0 0 0 -5.43,13.27 c 0,6.6 3.55,12.51 9.14,16.48 A 3.71,3.71 0 1 0 39.87,61.24 30.55,30.55 0 0 0 61,61 3.71,3.71 0 1 0 67.27,57.57 c 5.4,-3.93 8.8,-9.72 8.8,-16.17 z"
       id="path18"
       inkscape:connector-curvature="0" />
    <path
       class="cls-1"
       d="m 85.17,63.43 v 0 A 3.87,3.87 0 0 0 79.78,64.2 C 79.09,65.13 69,79 51.65,79 31.32,79 14.19,63.81 13.45,43.49 a 3.822751,3.822751 0 1 0 -7.64,0.29 c 0.33,9 4.08,23.93 17.76,34.07 a 43.08,43.08 0 0 0 26.52,8.86 C 70.77,86.26 81.32,74.96 85.91,68.82 a 3.86,3.86 0 0 0 -0.74,-5.39 z"
       id="path20"
       inkscape:connector-curvature="0" />
    <path
       class="cls-3"
       d="m 47.06,36.08 v 4.77 l 5.41,-5.64 a 5.47,5.47 0 0 1 0.66,-0.61 1.24,1.24 0 0 1 0.73,-0.19 1.33,1.33 0 0 1 1,0.35 1.13,1.13 0 0 1 0.37,0.85 1.68,1.68 0 0 1 -0.62,1.19 l -3.39,3.2 3.86,5.53 a 7.08,7.08 0 0 1 0.61,1 2.06,2.06 0 0 1 0.2,0.84 1.07,1.07 0 0 1 -0.35,0.79 1.39,1.39 0 0 1 -1,0.33 1.66,1.66 0 0 1 -0.94,-0.24 2,2 0 0 1 -0.61,-0.66 c -0.17,-0.27 -0.32,-0.51 -0.45,-0.74 l -3.26,-5 -2.22,2.15 v 2.8 a 1.78,1.78 0 0 1 -0.39,1.26 1.29,1.29 0 0 1 -1,0.41 1.38,1.38 0 0 1 -0.68,-0.18 1.27,1.27 0 0 1 -0.5,-0.5 1.66,1.66 0 0 1 -0.16,-0.61 c 0,-0.22 0,-0.55 0,-1 v -10.1 a 1.86,1.86 0 0 1 0.36,-1.25 1.27,1.27 0 0 1 1,-0.42 1.35,1.35 0 0 1 1,0.41 1.84,1.84 0 0 1 0.37,1.26 z"
       id="path22"
       inkscape:connector-curvature="0" />
  </g>
</svg>
