<?xml version="1.0" encoding="UTF-8" standalone="no"?>
<!-- Generator: Adobe Illustrator 16.0.0, SVG Export Plug-In . SVG Version: 6.00 Build 0)  -->

<svg
   xmlns:dc="http://purl.org/dc/elements/1.1/"
   xmlns:cc="http://creativecommons.org/ns#"
   xmlns:rdf="http://www.w3.org/1999/02/22-rdf-syntax-ns#"
   xmlns:svg="http://www.w3.org/2000/svg"
   xmlns="http://www.w3.org/2000/svg"
   xmlns:sodipodi="http://sodipodi.sourceforge.net/DTD/sodipodi-0.dtd"
   xmlns:inkscape="http://www.inkscape.org/namespaces/inkscape"
   version="1.1"
   id="Layer_1"
   x="0px"
   y="0px"
   width="48"
   height="48"
   viewBox="0 0 48 48"
   enable-background="new 0 0 170 45"
   xml:space="preserve"
   sodipodi:docname="shopper-compact.svg"
   inkscape:version="0.92.4 (unknown)"><metadata
   id="metadata66"><rdf:RDF><cc:Work
       rdf:about=""><dc:format>image/svg+xml</dc:format><dc:type
         rdf:resource="http://purl.org/dc/dcmitype/StillImage" /><dc:title></dc:title></cc:Work></rdf:RDF></metadata><defs
   id="defs64">
	
	
	
		
	
	
	
	
	
	
</defs><sodipodi:namedview
   pagecolor="#5c5c5c"
   bordercolor="#666666"
   borderopacity="1"
   objecttolerance="10"
   gridtolerance="10"
   guidetolerance="10"
   inkscape:pageopacity="0"
   inkscape:pageshadow="2"
   inkscape:window-width="1117"
   inkscape:window-height="512"
   id="namedview62"
   showgrid="false"
   inkscape:zoom="2.0117647"
   inkscape:cx="85"
   inkscape:cy="43.559633"
   inkscape:window-x="646"
   inkscape:window-y="513"
   inkscape:window-maximized="0"
   inkscape:current-layer="Layer_1"
   inkscape:showpageshadow="false"
   borderlayer="true" />
<g
   id="g935"
   transform="translate(3.3088128,-1.4999158)"><rect
     x="-20.68096"
     y="-23.177864"
     transform="rotate(170.50283)"
     width="6.5060415"
     height="14.208091"
     id="rect36"
     style="fill:#2da77a;stroke-width:1.00000632" /><g
     transform="translate(0,3)"
     id="FRENCH_LOAF_5_">
		<path
   id="loaf_5_"
   d="m 27.75,1.196 v 0 c 0.809,0.093 1.203,0.913 1.273,2.62 -0.326,0.085 -0.774,0.261 -1.179,0.615 -0.709,0.624 -0.979,1.552 -0.988,1.592 -0.005,0.019 -0.005,0.04 0.01,0.054 0.01,0.016 0.021,0.019 0.035,0.019 h 0.005 c 0.035,-0.005 0.903,-0.07 1.612,-0.698 0.206,-0.179 0.373,-0.39 0.51,-0.587 -0.01,0.627 -0.055,1.341 -0.12,2.15 -0.294,0.05 -0.908,0.203 -1.443,0.673 -0.709,0.624 -0.978,1.552 -0.988,1.592 -0.005,0.02 0,0.042 0.011,0.055 0.01,0.015 0.02,0.02 0.034,0.02 0.005,0 0.005,0 0.005,0 0.035,-0.007 0.905,-0.071 1.612,-0.699 0.315,-0.279 0.545,-0.619 0.704,-0.909 -0.064,0.658 -0.14,1.373 -0.229,2.146 -0.017,0.111 -0.026,0.216 -0.041,0.32 -0.27,0.04 -0.923,0.19 -1.481,0.679 -0.708,0.625 -0.979,1.552 -0.989,1.592 -0.005,0.02 -0.005,0.04 0.01,0.055 0.012,0.015 0.021,0.019 0.035,0.019 h 0.007 c 0.035,-0.005 0.903,-0.07 1.612,-0.697 0.328,-0.296 0.567,-0.65 0.724,-0.955 -0.121,0.938 -0.241,1.773 -0.365,2.517 -0.304,0.054 -0.898,0.214 -1.413,0.669 -0.709,0.623 -0.978,1.552 -0.987,1.591 -0.005,0.02 -0.005,0.041 0.01,0.054 0.01,0.016 0.02,0.02 0.035,0.02 h 0.005 c 0.034,-0.005 0.902,-0.069 1.611,-0.699 0.236,-0.203 0.42,-0.443 0.564,-0.674 -0.529,2.686 -1.168,3.83 -2.185,3.708 v 0 C 24.297,17.864 24.203,15.319 24.901,9.392 25.603,3.476 26.282,1.02 27.75,1.196 Z"
   inkscape:connector-curvature="0"
   style="fill:#2da77a" />
	</g><path
     d="m 29.597,15.73 c 0,0 0.02,2.162 1.532,2.785 0,0 0.309,0.169 0.659,0.164 0,0 0.315,0.261 0.614,0.395 0,0 0.266,0.215 1.157,0 0,0 1.248,-0.28 2.037,-1.079 0,0 1.701,-1.512 0.903,-3.04 0,0 -0.329,-1.197 -2.262,-1.413 0,0 -0.02,0.006 -0.064,-0.01 0.145,-0.694 0.35,-2.147 0.35,-2.147 -0.051,-0.214 -0.26,-0.063 -0.26,-0.063 0.029,0.569 -0.199,1.538 -0.339,2.067 -0.005,-0.006 -0.01,-0.011 -0.019,-0.016 0,0 -1.259,-1.418 -2.691,-0.725 0.001,-0.002 -1.848,0.707 -1.617,3.082 z m 7.881,-2.919 c 0,0 -0.145,-0.405 -0.483,-0.689 -0.093,-0.125 -0.318,-0.326 -0.744,-0.276 -0.478,0 -1.117,0.286 -1.942,1.164 -10e-4,10e-4 1.343,0.989 3.169,-0.199 z"
     id="path40"
     inkscape:connector-curvature="0"
     style="fill:#2da77a" /><g
     transform="translate(0,3)"
     id="g46">
		<path
   d="M 12.205,6.142 C 12.27,6.117 12.307,6.037 12.28,5.973 L 12.14,5.613 C 12.08,5.454 11.901,5.38 11.742,5.439 L 9.51,6.297 c -0.156,0.058 -0.235,0.24 -0.174,0.4 l 0.14,0.359 C 9.5,7.121 9.58,7.156 9.645,7.131 Z"
   id="path42"
   inkscape:connector-curvature="0"
   style="fill:#2da77a" />
		<path
   d="m 15.456,18.381 1.516,-0.585 c 0.45,-0.174 0.681,-0.684 0.507,-1.132 L 15.288,10.982 C 14.579,9.145 13.65,8.951 12.392,7.095 12.506,7.04 12.561,6.904 12.516,6.786 12.465,6.661 12.326,6.594 12.198,6.646 L 9.984,7.5 C 9.861,7.55 9.795,7.689 9.842,7.82 c 0.045,0.12 0.18,0.184 0.303,0.149 0.313,2.216 -0.241,2.99 0.463,4.822 l 2.191,5.682 c 0.176,0.448 0.684,0.679 1.134,0.505 z"
   id="path44"
   inkscape:connector-curvature="0"
   style="fill:#2da77a" />
	</g><path
     d="m 40.614,34.91 v 0 c -0.899,-0.645 -2.106,-0.471 -2.756,0.395 -0.354,0.475 -5.5,7.558 -14.398,7.558 C 13.056,42.863 4.29,35.091 3.911,24.691 3.871,23.64 2.976,22.765 1.883,22.81 0.805,22.856 -0.038,23.758 0.002,24.837 0.17,29.43 2.091,37.088 9.09,42.276 c 3.984,2.95 8.696,4.637 13.574,4.532 10.581,-0.231 15.982,-6.01 18.329,-9.156 0.643,-0.871 0.469,-2.097 -0.379,-2.742 z"
     id="path48"
     inkscape:connector-curvature="0"
     style="fill:#2da77a" /><g
     transform="translate(0,3)"
     style="fill:#ffffff"
     id="g54">
		<g
   style="fill:#ffffff"
   id="g52">
			<path
   d="M 34.004,13.635 H 11.501 c -1.339,0 -2.361,1.072 -2.162,2.395 0,0 0.719,4.278 1.458,7.02 1.872,6.949 5.686,10.064 11.97,10.064 6.439,0 10.888,-3.998 12.15,-10.529 0.818,-4.224 1.247,-6.893 1.247,-6.893 0.207,-1.323 -0.818,-2.057 -2.16,-2.057 z"
   id="path50"
   inkscape:connector-curvature="0"
   style="fill:#ffffff" />
		</g>
	</g><g
     transform="translate(0,3)"
     style="fill:#ffffff"
     id="g58">
		<path
   d="m 19.374,14.333 v -2.241 c 0,-1.866 1.518,-3.383 3.38,-3.383 1.866,0 3.384,1.518 3.384,3.383 v 2.241 h 3.194 v -2.241 c 0,-3.625 -2.95,-6.574 -6.573,-6.574 -3.624,0 -6.574,2.951 -6.574,6.574 v 2.241 z"
   id="path56"
   inkscape:connector-curvature="0"
   style="fill:#ffffff" />
	</g></g>
</svg>