<?xml version="1.0" encoding="UTF-8" standalone="no"?>
<!-- Generator: Adobe Illustrator 16.0.0, SVG Export Plug-In . SVG Version: 6.00 Build 0)  -->

<svg
   xmlns:dc="http://purl.org/dc/elements/1.1/"
   xmlns:cc="http://creativecommons.org/ns#"
   xmlns:rdf="http://www.w3.org/1999/02/22-rdf-syntax-ns#"
   xmlns:svg="http://www.w3.org/2000/svg"
   xmlns="http://www.w3.org/2000/svg"
   xmlns:sodipodi="http://sodipodi.sourceforge.net/DTD/sodipodi-0.dtd"
   xmlns:inkscape="http://www.inkscape.org/namespaces/inkscape"
   version="1.1"
   id="Layer_1"
   x="0px"
   y="0px"
   width="170px"
   height="45px"
   viewBox="0 0 170 45"
   enable-background="new 0 0 170 45"
   xml:space="preserve"
   sodipodi:docname="shopper.svg"
   inkscape:version="0.92.4 (unknown)"><metadata
   id="metadata66"><rdf:RDF><cc:Work
       rdf:about=""><dc:format>image/svg+xml</dc:format><dc:type
         rdf:resource="http://purl.org/dc/dcmitype/StillImage" /></cc:Work></rdf:RDF></metadata><defs
   id="defs64">
	
	
	
		
	
	
	
	
	
	
</defs><sodipodi:namedview
   pagecolor="#ffffff"
   bordercolor="#666666"
   borderopacity="1"
   objecttolerance="10"
   gridtolerance="10"
   guidetolerance="10"
   inkscape:pageopacity="0"
   inkscape:pageshadow="2"
   inkscape:window-width="1117"
   inkscape:window-height="512"
   id="namedview62"
   showgrid="false"
   inkscape:zoom="2.0117647"
   inkscape:cx="85"
   inkscape:cy="22.5"
   inkscape:window-x="646"
   inkscape:window-y="513"
   inkscape:window-maximized="0"
   inkscape:current-layer="Layer_1" />
<g
   id="g18">
		<g
   id="g16">
			<path
   style="fill:#2da77a"
   inkscape:connector-curvature="0"
   id="path2"
   d="m 42.302,42.205 c 0,-0.55 0.46,-1.01 1.008,-1.01 0.55,0 1.01,0.458 1.01,1.01 0,0.549 -0.46,1.007 -1.01,1.007 -0.548,0.006 -1.008,-0.454 -1.008,-1.007 z" />
			<path
   style="fill:#2da77a"
   inkscape:connector-curvature="0"
   id="path4"
   d="m 45.44,38.589 c 0,-2.625 1.783,-4.642 4.423,-4.642 1.618,0 2.571,0.659 3.251,1.542 l -0.92,0.823 c -0.59,-0.809 -1.338,-1.139 -2.257,-1.139 -1.87,0 -3.063,1.447 -3.063,3.415 0,1.964 1.192,3.43 3.063,3.43 0.92,0 1.674,-0.37 2.257,-1.157 l 0.92,0.842 c -0.68,0.88 -1.633,1.542 -3.251,1.542 -2.645,0.007 -4.423,-2.03 -4.423,-4.656 z" />
			<path
   style="fill:#2da77a"
   inkscape:connector-curvature="0"
   id="path6"
   d="m 53.805,38.589 c 0,-2.57 1.688,-4.642 4.389,-4.642 2.702,0 4.388,2.071 4.388,4.642 0,2.571 -1.686,4.662 -4.388,4.662 -2.7,0 -4.389,-2.091 -4.389,-4.662 z m 7.323,0 c 0,-1.795 -1.046,-3.415 -2.935,-3.415 -1.887,0 -2.936,1.617 -2.936,3.415 0,1.819 1.049,3.43 2.936,3.43 1.89,0 2.935,-1.613 2.935,-3.43 z" />
			<path
   style="fill:#2da77a"
   inkscape:connector-curvature="0"
   id="path8"
   d="m 74.784,43.033 v -6.021 c 0,-1.117 -0.479,-1.836 -1.632,-1.836 -0.92,0 -1.895,0.644 -2.353,1.357 v 6.496 h -1.378 v -6.021 c 0,-1.119 -0.46,-1.838 -1.632,-1.838 -0.898,0 -1.852,0.658 -2.331,1.378 v 6.479 H 64.082 V 34.16 h 1.376 v 1.285 c 0.384,-0.569 1.558,-1.505 2.882,-1.505 1.338,0 2.108,0.734 2.366,1.652 0.493,-0.807 1.685,-1.652 2.975,-1.652 1.615,0 2.474,0.9 2.474,2.682 v 6.405 h -1.371 z" />
			<path
   style="fill:#2da77a"
   inkscape:connector-curvature="0"
   id="path10"
   d="m 77.902,42.205 c 0,-0.55 0.46,-1.01 1.009,-1.01 0.55,0 1.01,0.458 1.01,1.01 0,0.549 -0.46,1.007 -1.01,1.007 -0.549,0.006 -1.009,-0.454 -1.009,-1.007 z" />
			<path
   style="fill:#2da77a"
   inkscape:connector-curvature="0"
   id="path12"
   d="M 81.687,43.033 V 30.792 h 1.378 v 4.719 c 0.714,-0.975 1.794,-1.558 2.99,-1.558 2.329,0 3.943,1.818 3.943,4.662 0,2.881 -1.632,4.642 -3.943,4.642 -1.249,0 -2.331,-0.644 -2.99,-1.542 v 1.323 h -1.378 z m 4.037,-1.01 c 1.784,0 2.846,-1.447 2.846,-3.415 0,-1.962 -1.063,-3.43 -2.846,-3.43 -1.103,0 -2.18,0.659 -2.659,1.435 v 4.02 c 0.473,0.766 1.557,1.39 2.659,1.39 z" />
			<path
   style="fill:#2da77a"
   inkscape:connector-curvature="0"
   id="path14"
   d="m 91.506,43.033 v -8.867 h 1.376 v 1.413 c 0.716,-0.918 1.743,-1.616 2.957,-1.616 v 1.412 C 95.674,35.356 95.51,35.34 95.304,35.34 c -0.865,0 -2.016,0.697 -2.422,1.413 v 6.275 h -1.376 z" />
		</g>
	</g><g
   id="g34"
   style="fill:#ffffff">
		<path
   style="fill:#ffffff"
   inkscape:connector-curvature="0"
   id="path20"
   d="m 73.007,11.049 c -2.887,0 -5.238,1.387 -6.235,2.7 V 9.746 6.741 4.765 L 64.306,4.85 c -1.134,0 -2.127,0.648 -2.227,1.997 v 0 2.899 14.414 2.664 0.121 c 0,1.209 1.033,2.316 2.241,2.316 h 1.398 c 0.604,0 1.053,0 1.053,0 V 17.22 c 0.65,-1.022 2.228,-2.045 4.054,-2.045 1.973,0 3.285,0.768 3.285,3.213 v 8.423 c 0,1.282 1.003,2.451 2.286,2.451 h 2.406 V 16.601 c -0.003,-3.435 -1.928,-5.552 -5.795,-5.552 z" />
		<path
   style="fill:#ffffff"
   inkscape:connector-curvature="0"
   id="path22"
   d="m 90.043,11.049 c -5.81,0 -9.314,4.237 -9.314,9.24 0,5.002 3.504,9.28 9.314,9.28 5.846,0 9.349,-4.271 9.349,-9.28 0,-5.008 -3.503,-9.24 -9.349,-9.24 z m 0,14.39 c -2.886,0 -4.495,-2.376 -4.495,-5.152 0,-2.742 1.609,-5.113 4.495,-5.113 2.92,0 4.527,2.377 4.527,5.113 0,2.777 -1.607,5.152 -4.527,5.152 z" />
		<path
   style="fill:#ffffff"
   inkscape:connector-curvature="0"
   id="path24"
   d="m 149.08,11.049 c -5.336,0 -9.131,4.127 -9.131,9.24 0,5.661 4.055,9.28 9.427,9.28 3.868,0 5.815,-1.452 6.294,-1.777 0.498,-0.336 0.679,-1.017 0.338,-1.516 l -0.226,-0.375 v 0 l -1.236,-1.847 c -1.473,1.575 -4.527,1.716 -4.662,1.716 -3.445,0 -4.473,-2.24 -4.518,-2.311 -0.383,-0.725 0.14,-1.583 0.97,-1.583 h 10.487 c 0.604,0 0.988,-0.513 0.988,-1.117 0.001,-0.312 -0.089,-9.71 -8.731,-9.71 z m -4.312,7.477 c 0.081,-0.649 0.614,-3.679 4.308,-3.679 3.773,0 4.318,3.03 4.383,3.679 z" />
		<path
   style="fill:#ffffff"
   inkscape:connector-curvature="0"
   id="path26"
   d="m 164.31,13.849 v -2.312 h -2.561 c -1.044,0 -2.032,0.65 -2.082,1.647 v 14.028 c 0.052,1.047 1.039,2.047 2.082,2.047 h 2.561 v -2.063 0 -2.76 -6.172 c 0,-0.568 0.564,-2.796 4.787,-2.796 0.52,0 0.903,-0.393 0.903,-0.907 v -3.514 c -3.095,-0.083 -5.69,2.802 -5.69,2.802 z" />
		<path
   style="fill:#ffffff"
   inkscape:connector-curvature="0"
   id="path28"
   d="m 49.708,16.415 c 0,-0.554 0.351,-1.022 0.948,-1.338 0.681,-0.349 1.407,-0.394 1.827,-0.394 v 0 c 0.154,0 1.876,-0.025 3.714,0.953 0.603,0.326 1.122,0.704 1.513,1.109 l 1.058,-1.862 h -0.007 c 0.455,-0.999 0.116,-1.977 -0.762,-2.465 -2.535,-1.417 -5.258,-1.378 -5.511,-1.378 v 0 0 0 c -2.631,0 -4.587,0.824 -5.801,2.072 -0.134,0.141 -0.26,0.285 -0.375,0.435 -0.693,0.89 -1.058,1.946 -1.058,3.062 0,6.939 10.448,4.567 10.448,7.454 0,1.094 -0.95,1.902 -2.961,1.862 -1.288,-0.024 -2.778,-0.311 -4.63,-1.378 -0.868,-0.505 -1.982,-0.209 -2.498,0.654 l -0.977,1.682 c 2.404,2.131 5.95,2.894 8.779,2.671 4.334,-0.351 6.78,-2.552 6.78,-5.602 -0.003,-7.133 -10.487,-4.941 -10.487,-7.537 z" />
		<path
   style="fill:#ffffff"
   inkscape:connector-curvature="0"
   id="path30"
   d="m 111.691,11.049 c -2.155,0 -4.137,0.948 -5.485,2.666 v -2.177 h -2.387 c -1.197,0 -2.308,0.918 -2.308,2.117 v 20.03 c 0,1.196 1.11,2.214 2.308,2.214 h 2.387 v -9.034 c 0,0.089 0.189,0.174 0.265,0.258 v 0 c 1.428,1.648 3.265,2.442 5.242,2.442 4.527,0 7.808,-3.399 7.808,-9.281 -0.001,-5.877 -3.302,-9.235 -7.83,-9.235 z m -1.422,14.39 c -1.436,0 -3.119,-0.844 -3.928,-1.916 -0.159,-0.186 -0.142,-0.275 -0.142,-0.414 v -5.642 c 0,-0.14 0,-0.22 0.142,-0.409 0.833,-1.102 2.465,-1.881 3.908,-1.881 2.666,0 4.504,2.08 4.504,5.112 -0.002,3.07 -1.813,5.15 -4.484,5.15 z" />
		<path
   style="fill:#ffffff"
   inkscape:connector-curvature="0"
   id="path32"
   d="m 130.705,11.049 c -2.156,0 -4.132,0.948 -5.479,2.666 v -2.177 h -2.393 c -1.197,0 -2.301,0.918 -2.301,2.117 v 20.03 c 0,1.196 1.104,2.214 2.301,2.214 h 2.393 v -9.034 c 0,0.089 0.184,0.174 0.259,0.258 v 0 c 1.43,1.648 3.267,2.442 5.241,2.442 4.527,0 7.81,-3.399 7.81,-9.281 -0.005,-5.877 -3.299,-9.235 -7.831,-9.235 z m -1.423,14.39 c -1.438,0 -3.114,-0.844 -3.923,-1.916 -0.159,-0.186 -0.134,-0.275 -0.134,-0.414 v -5.642 c 0,-0.14 -0.007,-0.22 0.134,-0.409 0.834,-1.102 2.466,-1.881 3.903,-1.881 2.666,0 4.503,2.08 4.503,5.112 0.001,3.07 -1.816,5.15 -4.483,5.15 z" />
	</g><rect
   style="fill:#2da77a;stroke-width:1.00000632"
   id="rect36"
   height="14.208091"
   width="6.5060415"
   transform="rotate(170.50283)"
   y="-20.218983"
   x="-21.175957" /><g
   id="FRENCH_LOAF_5_">
		<path
   style="fill:#2da77a"
   inkscape:connector-curvature="0"
   d="m 27.75,1.196 v 0 c 0.809,0.093 1.203,0.913 1.273,2.62 -0.326,0.085 -0.774,0.261 -1.179,0.615 -0.709,0.624 -0.979,1.552 -0.988,1.592 -0.005,0.019 -0.005,0.04 0.01,0.054 0.01,0.016 0.021,0.019 0.035,0.019 h 0.005 c 0.035,-0.005 0.903,-0.07 1.612,-0.698 0.206,-0.179 0.373,-0.39 0.51,-0.587 -0.01,0.627 -0.055,1.341 -0.12,2.15 -0.294,0.05 -0.908,0.203 -1.443,0.673 -0.709,0.624 -0.978,1.552 -0.988,1.592 -0.005,0.02 0,0.042 0.011,0.055 0.01,0.015 0.02,0.02 0.034,0.02 0.005,0 0.005,0 0.005,0 0.035,-0.007 0.905,-0.071 1.612,-0.699 0.315,-0.279 0.545,-0.619 0.704,-0.909 -0.064,0.658 -0.14,1.373 -0.229,2.146 -0.017,0.111 -0.026,0.216 -0.041,0.32 -0.27,0.04 -0.923,0.19 -1.481,0.679 -0.708,0.625 -0.979,1.552 -0.989,1.592 -0.005,0.02 -0.005,0.04 0.01,0.055 0.012,0.015 0.021,0.019 0.035,0.019 h 0.007 c 0.035,-0.005 0.903,-0.07 1.612,-0.697 0.328,-0.296 0.567,-0.65 0.724,-0.955 -0.121,0.938 -0.241,1.773 -0.365,2.517 -0.304,0.054 -0.898,0.214 -1.413,0.669 -0.709,0.623 -0.978,1.552 -0.987,1.591 -0.005,0.02 -0.005,0.041 0.01,0.054 0.01,0.016 0.02,0.02 0.035,0.02 h 0.005 c 0.034,-0.005 0.902,-0.069 1.611,-0.699 0.236,-0.203 0.42,-0.443 0.564,-0.674 -0.529,2.686 -1.168,3.83 -2.185,3.708 v 0 C 24.297,17.864 24.203,15.319 24.901,9.392 25.603,3.476 26.282,1.02 27.75,1.196 Z"
   id="loaf_5_" />
	</g><path
   style="fill:#2da77a"
   inkscape:connector-curvature="0"
   id="path40"
   d="m 29.597,12.73 c 0,0 0.02,2.162 1.532,2.785 0,0 0.309,0.169 0.659,0.164 0,0 0.315,0.261 0.614,0.395 0,0 0.266,0.215 1.157,0 0,0 1.248,-0.28 2.037,-1.079 0,0 1.701,-1.512 0.903,-3.04 0,0 -0.329,-1.197 -2.262,-1.413 0,0 -0.02,0.006 -0.064,-0.01 0.145,-0.694 0.35,-2.147 0.35,-2.147 -0.051,-0.214 -0.26,-0.063 -0.26,-0.063 0.029,0.569 -0.199,1.538 -0.339,2.067 -0.005,-0.006 -0.01,-0.011 -0.019,-0.016 0,0 -1.259,-1.418 -2.691,-0.725 0.001,-0.002 -1.848,0.707 -1.617,3.082 z m 7.881,-2.919 c 0,0 -0.145,-0.405 -0.483,-0.689 -0.093,-0.125 -0.318,-0.326 -0.744,-0.276 -0.478,0 -1.117,0.286 -1.942,1.164 -10e-4,10e-4 1.343,0.989 3.169,-0.199 z" /><g
   id="g46">
		<path
   style="fill:#2da77a"
   inkscape:connector-curvature="0"
   id="path42"
   d="M 12.205,6.142 C 12.27,6.117 12.307,6.037 12.28,5.973 L 12.14,5.613 C 12.08,5.454 11.901,5.38 11.742,5.439 L 9.51,6.297 c -0.156,0.058 -0.235,0.24 -0.174,0.4 l 0.14,0.359 C 9.5,7.121 9.58,7.156 9.645,7.131 Z" />
		<path
   style="fill:#2da77a"
   inkscape:connector-curvature="0"
   id="path44"
   d="m 15.456,18.381 1.516,-0.585 c 0.45,-0.174 0.681,-0.684 0.507,-1.132 L 15.288,10.982 C 14.579,9.145 13.65,8.951 12.392,7.095 12.506,7.04 12.561,6.904 12.516,6.786 12.465,6.661 12.326,6.594 12.198,6.646 L 9.984,7.5 C 9.861,7.55 9.795,7.689 9.842,7.82 c 0.045,0.12 0.18,0.184 0.303,0.149 0.313,2.216 -0.241,2.99 0.463,4.822 l 2.191,5.682 c 0.176,0.448 0.684,0.679 1.134,0.505 z" />
	</g><path
   style="fill:#2da77a"
   inkscape:connector-curvature="0"
   id="path48"
   d="m 40.614,31.91 v 0 c -0.899,-0.645 -2.106,-0.471 -2.756,0.395 -0.354,0.475 -5.5,7.558 -14.398,7.558 C 13.056,39.863 4.29,32.091 3.911,21.691 3.871,20.64 2.976,19.765 1.883,19.81 0.805,19.856 -0.038,20.758 0.002,21.837 0.17,26.43 2.091,34.088 9.09,39.276 c 3.984,2.95 8.696,4.637 13.574,4.532 10.581,-0.231 15.982,-6.01 18.329,-9.156 0.643,-0.871 0.469,-2.097 -0.379,-2.742 z" /><g
   id="g54"
   style="fill:#ffffff">
		<g
   id="g52"
   style="fill:#ffffff">
			<path
   style="fill:#ffffff"
   inkscape:connector-curvature="0"
   id="path50"
   d="M 34.004,13.635 H 11.501 c -1.339,0 -2.361,1.072 -2.162,2.395 0,0 0.719,4.278 1.458,7.02 1.872,6.949 5.686,10.064 11.97,10.064 6.439,0 10.888,-3.998 12.15,-10.529 0.818,-4.224 1.247,-6.893 1.247,-6.893 0.207,-1.323 -0.818,-2.057 -2.16,-2.057 z" />
		</g>
	</g><g
   id="g58"
   style="fill:#ffffff">
		<path
   style="fill:#ffffff"
   inkscape:connector-curvature="0"
   id="path56"
   d="m 19.374,14.333 v -2.241 c 0,-1.866 1.518,-3.383 3.38,-3.383 1.866,0 3.384,1.518 3.384,3.383 v 2.241 h 3.194 v -2.241 c 0,-3.625 -2.95,-6.574 -6.573,-6.574 -3.624,0 -6.574,2.951 -6.574,6.574 v 2.241 z" />
	</g>
</svg>